<svg xmlns="http://www.w3.org/2000/svg" viewBox="0 0 96 96" role="img" aria-labelledby="title desc">
  <title id="title">DrMuscat logo mark</title>
  <desc id="desc">A premium teal D and M monogram with a subtle healthcare plus detail.</desc>
  <defs>
    <linearGradient id="bg" x1="12" y1="10" x2="84" y2="88" gradientUnits="userSpaceOnUse">
      <stop offset="0" stop-color="#1cb6a3"/>
      <stop offset="0.48" stop-color="#0e7469"/>
      <stop offset="1" stop-color="#07302c"/>
    </linearGradient>
    <linearGradient id="soft" x1="22" y1="12" x2="62" y2="74" gradientUnits="userSpaceOnUse">
      <stop offset="0" stop-color="#ffffff" stop-opacity="0.98"/>
      <stop offset="1" stop-color="#dff7f2" stop-opacity="0.88"/>
    </linearGradient>
    <filter id="shadow" x="-20%" y="-20%" width="140%" height="140%" color-interpolation-filters="sRGB">
      <feDropShadow dx="0" dy="8" stdDeviation="10" flood-color="#052b27" flood-opacity="0.18"/>
    </filter>
  </defs>
  <rect x="6" y="6" width="84" height="84" rx="25" fill="url(#bg)"/>
  <path d="M23 71V25h20c15.4 0 27 9.7 27 23s-11.6 23-27 23H23Zm13.2-11.6h6.2c8.7 0 14.3-4.6 14.3-11.4 0-6.8-5.6-11.4-14.3-11.4h-6.2v22.8Z" fill="url(#soft)" filter="url(#shadow)"/>
  <path d="M47.2 70.8V46.1c0-2.7 3.3-4 5.2-2.1l10.3 10.3L73 44c1.9-1.9 5.2-.6 5.2 2.1v24.7H66.4V61.4l-3.7 3.7-3.7-3.7v9.4H47.2Z" fill="#f3fffc" opacity="0.96"/>
  <path d="M70.4 19.5h7.8v7.4h7.3v7.7h-7.3V42h-7.8v-7.4h-7.3v-7.7h7.3v-7.4Z" fill="#c9f4e8"/>
  <path d="M21.5 26.5c5.6-7.1 14-11.5 23.8-11.5 9.5 0 17.9 4.2 23.4 10.8" fill="none" stroke="#baf1e5" stroke-width="4.6" stroke-linecap="round" opacity="0.34"/>
</svg>
